<?xml version="1.0" encoding="utf-8"?>
<!-- Generator: Adobe Illustrator 16.0.0, SVG Export Plug-In . SVG Version: 6.00 Build 0)  -->
<!DOCTYPE svg PUBLIC "-//W3C//DTD SVG 1.1//EN" "http://www.w3.org/Graphics/SVG/1.1/DTD/svg11.dtd">
<svg version="1.1" id="Layer_0_xA0_Image_1_" xmlns="http://www.w3.org/2000/svg" xmlns:xlink="http://www.w3.org/1999/xlink"
	 x="0px" y="0px" width="1551.359px" height="323.76px" viewBox="0 0 1551.359 323.76" enable-background="new 0 0 1551.359 323.76"
	 xml:space="preserve">
<g>
	<path fill-rule="evenodd" clip-rule="evenodd" fill="#FFFFFF" d="M0.48,0.48c517.28,0,1034.559,0,1551.838,0c0,108,0,216,0,324
		c-517.279,0-1034.559,0-1551.838,0C0.48,216.479,0.48,108.48,0.48,0.48z"/>
	<path fill-rule="evenodd" clip-rule="evenodd" d="M1270.374,188.316c0.853-3.983,1.708-7.928,2.54-11.877
		c5.383-25.566,10.761-51.133,16.14-76.699c1.35-6.411,2.696-12.822,4.048-19.233c0.115-0.546,0.267-1.084,0.391-1.629
		c0.212-0.934,0.857-1.317,1.747-1.318c0.972,0,1.411,0.642,1.596,1.493c0.511,2.341,1.005,4.686,1.502,7.03
		c5.401,25.476,10.804,50.952,16.201,76.429c1.673,7.894,3.33,15.79,5.001,23.684c0.147,0.697,0.337,1.384,0.509,2.08
		c0.821-0.259,0.706-0.971,0.802-1.482c2.926-15.706,5.818-31.419,8.729-47.127c3.145-16.966,6.307-33.928,9.454-50.893
		c1.501-8.09,2.986-16.183,4.483-24.273c0.102-0.548,0.2-1.103,0.371-1.632c0.325-1.007,1.068-1.353,2.068-1.124
		c1.048,0.24,1.411,0.923,1.213,1.969c-0.652,3.454-1.287,6.911-1.93,10.366c-3.131,16.805-6.26,33.61-9.393,50.415
		c-3.133,16.806-6.271,33.61-9.402,50.417c-1.361,7.303-2.707,14.608-4.063,21.912c-0.131,0.707-0.309,1.405-0.416,2.116
		c-0.14,0.924-0.631,1.479-1.573,1.479c-0.89,0-1.547-0.466-1.771-1.34c-0.355-1.393-0.651-2.802-0.947-4.209
		c-5.243-24.856-10.481-49.713-15.721-74.57c-2.143-10.162-4.284-20.324-6.43-30.486c-0.049-0.231-0.141-0.453-0.213-0.677
		c-0.698,0.039-0.645,0.592-0.736,1.026c-5.943,28.219-11.885,56.438-17.826,84.658c-1.612,7.66-3.222,15.321-4.838,22.98
		c-0.099,0.469-0.237,0.929-0.362,1.392c-0.209,0.771-0.678,1.313-1.503,1.3c-0.879-0.016-1.511-0.513-1.764-1.368
		c-0.18-0.611-0.277-1.247-0.393-1.876c-2.307-12.49-4.605-24.982-6.913-37.474c-3.308-17.909-6.626-35.817-9.932-53.727
		c-2.596-14.061-5.181-28.125-7.767-42.188c-0.087-0.472-0.132-0.951-0.192-1.427c-0.129-1.003,0.149-1.739,1.265-1.933
		c1.129-0.196,1.809,0.19,2.07,1.448c0.569,2.736,1.037,5.493,1.547,8.242c4.603,24.819,9.207,49.637,13.806,74.456
		c2.604,14.06,5.198,28.122,7.807,42.18C1269.674,187.335,1269.494,187.991,1270.374,188.316z"/>
	<path fill-rule="evenodd" clip-rule="evenodd" d="M929.388,74.235c0,0.849,0,1.697,0,2.546c0,39.755,0,79.51-0.001,119.265
		c0,0.8-0.007,1.6-0.022,2.399c-0.022,1.136-0.551,1.8-1.741,1.837c-1.243,0.038-1.775-0.469-1.925-1.91
		c-0.057-0.555-0.033-1.118-0.033-1.678c-0.001-44.315-0.001-88.629,0.002-132.944c0-0.639,0.015-1.28,0.062-1.917
		c0.07-0.946,0.629-1.445,1.551-1.504c0.943-0.06,1.688,0.17,2.052,1.222c5.313,15.411,11.194,30.615,16.817,45.913
		c9.428,25.652,18.943,51.271,28.425,76.903c0.275,0.744,0.586,1.475,0.937,2.354c0.653-0.41,0.483-0.997,0.489-1.479
		c0.022-1.68,0.01-3.36,0.01-5.04c0-38.555-0.001-77.11,0.002-115.665c0.001-0.879-0.038-1.768,0.075-2.634
		c0.153-1.175,0.834-1.676,1.977-1.591c1.015,0.075,1.643,0.576,1.678,1.651c0.02,0.64,0.025,1.28,0.025,1.919
		c0.001,44.074,0.002,88.149-0.004,132.224c0,0.876,0,1.766-0.142,2.626c-0.121,0.739-0.583,1.323-1.406,1.44
		c-0.886,0.127-1.58-0.173-1.949-1.027c-0.285-0.66-0.55-1.329-0.799-2.003c-14.901-40.242-29.8-80.485-44.704-120.726
		C930.489,75.681,930.344,74.881,929.388,74.235z"/>
	<path fill-rule="evenodd" clip-rule="evenodd" d="M91.516,101.761c1.931,0.205,4.061,0.684,4.898,3.289
		c0.834,2.598,2.451,4.425,5.17,5.166c0.449,0.122,0.875,0.398,1.261,0.675c0.774,0.554,0.897,1.263,0.392,2.085
		c-0.6,0.978-1.424,1.749-2.383,2.324c-1.797,1.077-2.863,2.701-3.813,4.501c-3.386,6.413-5.237,13.365-7.282,20.255
		c-3.094,10.422-4.572,21.05-4.272,31.926c0.081,2.941-0.366,5.887,0.705,8.786c0.511,1.384-0.292,2.788-1.394,3.609
		c-3.188,2.374-5.397,5.307-6.488,9.187c-0.456,1.619-1.301,1.574-2.224,0.048c-0.743-1.228-1.341-2.542-2.017-3.811
		c-0.563-1.057-1.107-2.126-1.727-3.148c-1.51-2.496-3.683-3.938-6.654-4.058c-1.037-0.042-2.086-0.229-3.107-0.129
		c-1.686,0.164-2.316-0.734-1.942-2.399c0.672-2.998,1.68-6.003,4.037-8.016c4.315-3.686,6.455-8.525,7.75-13.761
		c2.533-10.235,5.394-20.376,8.193-30.538c0.808-2.931,1.807-5.792,2.803-8.659c1.263-3.634,2.185-7.314,2.173-11.23
		C85.583,103.88,87.658,101.765,91.516,101.761z"/>
	<path fill-rule="evenodd" clip-rule="evenodd" d="M1491.175,182.917c0.056,1.537-0.387,2.067-1.641,2.169
		c-1.194,0.096-2.396,0.117-3.594,0.165c-2.567,0.103-4.595,1.155-6.062,3.309c-0.723,1.061-1.393,2.143-1.957,3.294
		c-0.563,1.147-1.102,2.313-1.742,3.416c-0.458,0.789-0.709,2.124-1.834,1.931c-0.98-0.169-1.188-1.429-1.434-2.336
		c-0.762-2.816-2.287-5.024-4.695-6.721c-2.203-1.552-3.416-3.571-2.232-6.404c0.27-0.644,0.346-1.403,0.357-2.112
		c0.144-9.125,0.08-18.26-1.92-27.209c-2.195-9.828-4.713-19.579-9.053-28.747c-1.146-2.42-2.536-4.504-4.842-6.082
		c-3.208-2.196-3.051-3.702,0.472-5.017c2.389-0.892,3.571-2.615,4.319-4.774c0.808-2.333,2.564-3.128,4.775-3.311
		c3.4-0.281,5.754,1.674,5.906,5.087c0.158,3.534,0.525,7.012,1.727,10.359c3.376,9.415,5.742,19.125,8.436,28.74
		c1.163,4.153,2.095,8.37,3.194,12.541c0.653,2.476,1.548,4.871,2.709,7.165c1.059,2.092,2.385,3.938,4.187,5.482
		C1489.116,176.317,1490.321,179.704,1491.175,182.917z"/>
	<path fill-rule="evenodd" clip-rule="evenodd" d="M1127.084,157.711c1.636,2.768,3.172,5.378,4.72,7.982
		c6.087,10.235,12.179,20.469,18.269,30.704c0.285,0.48,0.604,0.946,0.841,1.451c0.405,0.864,0.135,1.565-0.666,2.04
		c-0.753,0.446-1.543,0.539-2.163-0.197c-0.459-0.546-0.825-1.175-1.193-1.791c-7.387-12.346-14.754-24.703-22.159-37.037
		c-1.554-2.588-0.714-2.323-4.114-1.817c-1.818,0.27-3.633,0.657-5.46,0.733c-1.421,0.058-1.807,0.641-1.678,1.906
		c0.057,0.554,0.008,1.119,0.009,1.678c0.017,11.115,0.034,22.229,0.046,33.345c0,0.718,0.017,1.446-0.094,2.151
		c-0.16,1.029-0.871,1.473-1.882,1.448c-1.02-0.025-1.684-0.502-1.761-1.563c-0.058-0.796-0.041-1.598-0.04-2.397
		c0.015-40.462,0.032-80.924,0.045-121.386c0.002-3.918-0.045-7.836-0.042-11.754c0.003-2.654,0.248-2.894,2.856-2.889
		c6.959,0.011,13.946-0.007,20.757,1.589c12.239,2.868,21.222,9.606,25.414,21.927c3.012,8.853,3.71,17.952,3.302,27.197
		c-0.259,5.844-1.111,11.595-2.779,17.222c-3.854,12.992-12.109,21.915-24.701,26.837
		C1132.234,156.019,1129.792,156.773,1127.084,157.711z"/>
	<path fill-rule="evenodd" clip-rule="evenodd" d="M844.544,130.074c0-13.912-0.004-27.824,0.003-41.736
		c0.002-3.362,0.165-6.707,1.074-9.979c2.481-8.93,8.161-14.674,17.135-16.999c6.317-1.636,12.715-1.566,18.955,0.287
		c9.237,2.745,14.51,9.174,16.349,18.538c0.479,2.443,0.595,4.915,0.595,7.397c-0.001,28.464-0.003,56.928,0.003,85.392
		c0.001,3.209-0.222,6.394-1.063,9.501c-2.368,8.755-7.823,14.492-16.67,16.796c-5.743,1.495-11.563,1.585-17.333,0.246
		c-10.355-2.404-17.742-11.01-18.771-21.721c-0.19-1.986-0.262-3.99-0.265-5.986C844.533,157.898,844.544,143.986,844.544,130.074z"
		/>
	<path fill-rule="evenodd" clip-rule="evenodd" d="M529.858,170.38c1.04-1.035,1.226-1.906,1.559-2.687
		c14.856-34.764,29.704-69.532,44.553-104.299c0.251-0.588,0.49-1.182,0.768-1.757c0.402-0.827,1.011-1.206,1.948-0.832
		c0.9,0.36,1.576,0.938,1.36,1.969c-0.178,0.849-0.566,1.66-0.911,2.467c-9.736,22.784-19.479,45.565-29.219,68.348
		c-3.017,7.055-6.033,14.11-9.048,21.167c-1.046,2.45-1.043,2.451,0.745,4.249c12.185,12.251,24.37,24.502,36.554,36.754
		c0.508,0.511,1.027,1.012,1.498,1.556c0.711,0.822,0.525,1.615-0.19,2.33c-0.73,0.729-1.55,0.827-2.354,0.159
		c-0.613-0.51-1.162-1.099-1.726-1.665c-11.793-11.851-23.584-23.704-35.378-35.555c-0.502-0.504-1.029-0.983-1.548-1.477
		c-0.788,0.422-0.873,1.188-1.137,1.808c-2.282,5.37-4.519,10.759-6.81,16.125c-0.483,1.132-0.684,2.265-0.677,3.487
		c0.029,5.039,0.028,10.079,0.001,15.119c-0.01,1.907-0.472,2.535-1.731,2.625c-1.183,0.084-1.842-0.389-1.994-1.557
		c-0.092-0.709-0.044-1.438-0.044-2.157c-0.001-44.238-0.001-88.476-0.001-132.713c0-0.56-0.028-1.123,0.019-1.679
		c0.109-1.304,0.589-1.803,1.716-1.856c1.222-0.058,1.88,0.51,2.017,1.845c0.073,0.713,0.029,1.438,0.029,2.158
		c0.001,34.238,0,68.477,0,102.715C529.858,167.983,529.858,168.938,529.858,170.38z"/>
	<path fill-rule="evenodd" clip-rule="evenodd" d="M95.365,201.952c-2.254,0.003-4.443,0.45-6.633,0.926
		c-2.823,0.614-2.991,0.521-4.444-1.871c-0.374-0.614-0.761-1.222-1.111-1.85c-1.924-3.454-1.314-7.07,1.954-9.313
		c2.682-1.84,4.452-4.317,6.052-7.003c4.676-7.847,8.278-16.221,11.953-24.556c1.903-4.315,3.703-8.685,6.126-12.738
		c3.497-5.847,4.883-12.269,5.493-18.935c0.139-1.512,0.208-3.037,0.463-4.53c0.58-3.393,4.327-5.87,7.474-5.07
		c1.251,0.318,2.215,0.932,2.658,2.171c0.677,1.897,1.94,3.26,3.636,4.301c0.964,0.591,1.677,1.483,2.35,2.378
		c0.971,1.292,1.012,2.196-0.055,3.452c-0.979,1.153-2.1,2.194-3.215,3.223c-6.431,5.932-10.88,13.165-13.719,21.365
		c-2.9,8.379-5.036,16.996-7.431,25.53c-0.385,1.374-0.538,2.822-0.696,4.247c-0.234,2.113,0.663,3.896,1.825,5.57
		c0.975,1.404,1.742,2.858,1.535,4.662c-0.23,2.013-0.994,3.132-2.962,3.575c-2.096,0.472-3.848,1.44-5.481,2.792
		C99.208,201.876,98.54,202.002,95.365,201.952z"/>
	<path fill-rule="evenodd" clip-rule="evenodd" d="M1469.643,198.066c-0.01,1.782-0.765,3.183-1.594,4.565
		c-2.083,3.479-2.073,3.464-6.008,2.658c-2.346-0.48-4.688-0.946-7.126-0.692c-1.591,0.166-2.958-0.573-4.14-1.598
		c-1.66-1.438-3.488-2.444-5.683-2.916c-2.168-0.467-3.301-2.549-2.905-4.811c0.183-1.043,0.548-2.048,1.221-2.839
		c2.43-2.859,2.621-6.177,1.688-9.517c-2.727-9.771-4.964-19.711-8.679-29.161c-2.982-7.589-7.56-14.246-13.793-19.651
		c-0.722-0.625-1.413-1.306-2.01-2.049c-1.153-1.435-1.129-2.172-0.059-3.632c0.764-1.041,1.647-1.966,2.75-2.645
		c1.342-0.826,2.231-1.97,2.892-3.408c1.326-2.89,3.864-3.624,6.713-2.145c2.423,1.257,3.644,3.176,3.815,5.917
		c0.271,4.308,0.755,8.597,1.856,12.79c0.509,1.935,0.993,3.898,1.997,5.635c5.013,8.677,8.555,18.046,12.815,27.078
		c2.354,4.991,4.734,9.962,7.63,14.671c1.478,2.403,3.125,4.617,5.572,6.166C1468.645,193.778,1469.495,195.813,1469.643,198.066z"
		/>
	<path fill-rule="evenodd" clip-rule="evenodd" d="M324.118,130.141c0,21.992,0,43.985-0.001,65.976c0,0.8,0,1.601-0.036,2.398
		c-0.048,1.065-0.677,1.567-1.697,1.627c-1.115,0.065-1.763-0.464-1.912-1.655c-0.088-0.71-0.055-1.437-0.055-2.155
		c-0.002-10.956-0.001-21.912-0.002-32.869c0-0.56-0.038-1.122,0.002-1.678c0.079-1.09-0.305-1.678-1.49-1.577
		c-0.556,0.047-1.119,0.004-1.679,0.004c-13.436,0-26.871,0-40.306,0c-0.64,0-1.28,0.024-1.919,0.003
		c-0.902-0.029-1.329,0.368-1.289,1.287c0.028,0.638-0.003,1.28-0.003,1.918c0,11.036,0,22.072-0.002,33.108
		c0,0.72,0.019,1.443-0.054,2.157c-0.11,1.086-0.856,1.471-1.846,1.453c-0.89-0.015-1.563-0.395-1.694-1.351
		c-0.085-0.63-0.093-1.274-0.093-1.913c-0.004-44.464-0.004-88.928,0-133.393c0-0.638,0.015-1.281,0.087-1.914
		c0.121-1.066,0.829-1.519,1.825-1.493c1.009,0.026,1.658,0.554,1.723,1.612c0.049,0.797,0.052,1.598,0.052,2.397
		c0.002,29.75-0.001,59.499,0.006,89.248c0,3.517-0.311,3.107,3.048,3.11c13.515,0.014,27.03,0.005,40.546,0.005
		c0.16,0,0.319,0.002,0.479,0c2.469-0.042,2.609,0.484,2.608-2.599c-0.003-29.909-0.002-59.819,0.002-89.728
		c0-0.878-0.005-1.764,0.107-2.632c0.137-1.06,0.896-1.465,1.889-1.41c0.893,0.05,1.532,0.505,1.625,1.448
		c0.079,0.793,0.075,1.596,0.075,2.395C324.119,85.997,324.118,108.069,324.118,130.141z"/>
	<path fill-rule="evenodd" clip-rule="evenodd" d="M476.855,200.44c-4.425-0.153-8.636-0.504-12.643-2.102
		c-7.676-3.06-12.269-8.68-13.916-16.736c-0.417-2.04-0.638-4.111-0.558-6.199c0.057-1.512,0.508-2.051,1.695-2.122
		c1.286-0.078,1.98,0.532,2.06,2.064c0.099,1.917,0.149,3.825,0.535,5.722c1.471,7.241,5.68,12.084,12.743,14.205
		c6.504,1.952,13.132,1.98,19.637,0.025c7.737-2.325,12.141-7.699,13.298-15.663c1.112-7.664-0.215-14.975-3.593-21.909
		c-3.648-7.488-8.838-13.877-14.518-19.88c-3.241-3.427-6.661-6.686-9.974-10.046c-5.627-5.711-10.835-11.764-15.055-18.616
		c-4.873-7.913-7.212-16.47-6.815-25.794c0.503-11.787,7.921-20.417,19.537-22.433c6.304-1.093,12.609-1.066,18.735,0.971
		c9.191,3.057,14.264,9.571,15.515,19.118c0.177,1.346,0.297,2.709,0.297,4.065c0,1.615-0.589,2.251-1.839,2.273
		c-1.286,0.021-1.767-0.534-1.907-2.191c-0.128-1.513-0.171-3.038-0.403-4.534c-1.188-7.662-5.362-12.929-12.835-15.2
		c-6.324-1.922-12.787-1.993-19.176-0.24c-8.368,2.296-13.515,8.721-14.08,17.386c-0.595,9.134,1.396,17.606,6.429,25.339
		c4.786,7.355,10.581,13.841,16.843,19.935c5.336,5.192,10.556,10.489,15.095,16.409c4.453,5.808,8.314,11.943,10.297,19.087
		c1.583,5.702,2.108,11.499,1.107,17.337c-1.707,9.956-8.637,16.91-18.582,18.93C482.104,200.183,479.388,200.267,476.855,200.44z"
		/>
	<path fill-rule="evenodd" clip-rule="evenodd" d="M598.304,130.145c0-22,0-43.999,0.001-65.999c0-3.854,0.005-3.859,3.868-3.86
		c13.68-0.002,27.359-0.001,41.039,0.001c0.719,0,1.447-0.03,2.156,0.063c1.207,0.159,1.68,0.768,1.636,1.924
		c-0.04,1.05-0.571,1.631-1.621,1.691c-0.718,0.042-1.438,0.052-2.157,0.052c-12.561,0.003-25.12,0.002-37.68,0.002
		c-0.56,0-1.121-0.015-1.68,0.005c-1.787,0.063-1.825,0.069-1.831,1.96c-0.018,6.64-0.008,13.28-0.008,19.92
		c0,22.64-0.003,45.279,0.004,67.919c0.001,3.019-0.41,2.943,3.016,2.942c10.24-0.002,20.479-0.002,30.72,0.002
		c0.719,0,1.441,0.005,2.156,0.074c0.929,0.09,1.425,0.631,1.456,1.582c0.034,1.028-0.396,1.72-1.451,1.847
		c-0.711,0.086-1.438,0.058-2.157,0.059c-10.16,0.003-20.32,0.002-30.479,0.002c-0.56,0-1.125,0.053-1.679-0.009
		c-1.313-0.145-1.604,0.513-1.601,1.69c0.028,10.959,0.008,21.919,0.025,32.879c0.002,1.754,0.057,1.794,1.973,1.798
		c9.04,0.016,18.079,0.007,27.119,0.008c4.56,0.001,9.121,0.041,13.68-0.013c1.951-0.023,2.274,1.065,2.187,2.115
		c-0.067,0.812-0.477,1.373-1.297,1.495c-0.707,0.105-1.43,0.142-2.146,0.142c-13.919,0.009-27.839,0.007-41.759,0.005
		c-0.56,0-1.121-0.004-1.679-0.043c-1.142-0.082-1.735-0.721-1.776-1.856c-0.028-0.8-0.033-1.6-0.033-2.399
		C598.304,174.144,598.304,152.145,598.304,130.145z"/>
	<path fill-rule="evenodd" clip-rule="evenodd" d="M355.788,110.493c0,14.32,0,28.64,0,42.959c0,0.4-0.006,0.8,0.001,1.2
		c0.037,2.07,0.038,2.103,2.168,2.105c10.479,0.013,20.96,0.004,31.439,0.011c0.798,0,1.601,0.012,2.394,0.098
		c0.961,0.104,1.352,0.748,1.353,1.667c0.001,0.912-0.387,1.573-1.326,1.709c-0.707,0.103-1.435,0.085-2.153,0.085
		c-10.4,0.005-20.8-0.001-31.199,0.006c-2.882,0.002-2.672-0.283-2.674,2.748c-0.005,10.24-0.002,20.479-0.002,30.72
		c0,0.479,0.027,0.961-0.001,1.439c-0.057,0.984,0.315,1.516,1.373,1.457c0.638-0.034,1.279-0.001,1.919-0.001
		c12.64,0.001,25.28,0,37.919,0.002c0.72,0,1.44,0.005,2.159,0.033c1.077,0.043,1.568,0.67,1.606,1.698
		c0.038,1.003-0.348,1.732-1.41,1.894c-0.628,0.096-1.273,0.114-1.91,0.114c-14,0.007-28,0.006-41.999,0.003
		c-0.56,0-1.121-0.012-1.677-0.063c-1.028-0.093-1.592-0.674-1.652-1.706c-0.037-0.639-0.05-1.279-0.05-1.918
		c-0.002-44.319-0.003-88.639,0-132.958c0-3.395,0.113-3.509,3.496-3.51c13.92-0.005,27.84-0.002,41.76,0
		c0.56,0,1.125-0.025,1.678,0.041c1.255,0.15,1.758,0.691,1.769,1.815c0.011,1.131-0.488,1.694-1.734,1.829
		c-0.712,0.077-1.438,0.046-2.158,0.046c-12.64,0.002-25.279,0.001-37.919,0.002c-0.64,0-1.28,0.02-1.92,0.011
		c-0.922-0.014-1.286,0.457-1.249,1.343c0.027,0.639,0,1.28,0,1.92C355.788,81.693,355.788,96.093,355.788,110.493z"/>
	<path fill-rule="evenodd" clip-rule="evenodd" d="M729.116,130.307c0-22.159,0-44.317,0-66.476c0-3.441,0.089-3.542,3.438-3.544
		c13.919-0.006,27.838-0.003,41.757-0.001c0.56,0,1.119,0.011,1.679,0.035c1.148,0.048,1.763,0.632,1.776,1.805
		c0.015,1.162-0.45,1.705-1.71,1.845c-0.712,0.079-1.438,0.047-2.157,0.047c-12.319,0.002-24.638,0.001-36.957,0.002
		c-0.561,0-1.12-0.004-1.68,0.001c-2.344,0.022-2.361,0.024-2.361,2.37c-0.004,29.358-0.004,58.716,0.001,88.074
		c0,2.279,0.02,2.295,2.43,2.297c10.319,0.007,20.639,0.002,30.958,0.004c0.72,0,1.445-0.031,2.158,0.044
		c1.241,0.131,1.824,0.758,1.781,1.805c-0.041,1.025-0.654,1.59-1.921,1.696c-0.636,0.053-1.279,0.021-1.919,0.021
		c-10.16,0.001-20.319,0-30.478,0c-0.48,0-0.967,0.053-1.438-0.009c-1.333-0.174-1.591,0.513-1.588,1.679
		c0.027,10.959,0.007,21.918,0.023,32.877c0.002,1.79,0.053,1.813,2.181,1.814c12.879,0.009,25.758,0.004,38.637,0.005
		c0.72,0,1.439,0.017,2.159,0.011c1.142-0.009,1.82,0.48,1.878,1.682c0.061,1.254-0.443,1.839-1.829,2.009
		c-0.553,0.068-1.118,0.043-1.678,0.043c-13.839,0.002-27.678,0.002-41.517,0.001c-0.4,0-0.801,0.016-1.2-0.009
		c-1.991-0.119-2.344-0.475-2.417-2.453c-0.024-0.639-0.005-1.279-0.005-1.92C729.116,174.144,729.116,152.225,729.116,130.307z"/>
	<path fill-rule="evenodd" clip-rule="evenodd" d="M76.808,95.751c-0.221,2.006-1.08,4.03-2.542,5.635
		c-3.168,3.479-4.713,7.745-6.237,12.038c-2.232,6.289-3.221,12.855-4.16,19.421c-1.29,9.02-2.343,18.071-3.215,27.14
		c-0.32,3.333-0.785,6.678-0.496,10.05c0.083,0.977-0.135,1.896-0.529,2.796c-1.381,3.153-2.788,6.299-2.446,9.89
		c0.094,0.985-0.587,1.2-1.414,1.111c-1.133-0.122-2.187-0.535-3.153-1.091c-1.651-0.947-3.404-1.328-5.286-1.288
		c-1.855,0.04-3.671-0.269-5.423-0.859c-1.963-0.661-2.491-1.63-2.122-3.666c0.286-1.578,1.099-2.847,2.432-3.705
		c2.585-1.665,4.253-4.048,5.587-6.746c1.708-3.453,3.005-7.056,4.044-10.757c2.076-7.398,3.428-14.95,4.753-22.506
		c0.98-5.587,1.974-11.173,2.94-16.763c0.983-5.691,1.012-11.46,1.354-17.202c0.085-1.439,0.096-2.882,0.744-4.219
		c0.462-0.954,0.984-1.509,2.233-1.037c2.452,0.926,4.848,0.643,7.152-0.668c0.898-0.511,1.926-0.754,2.997-0.74
		C76.126,92.611,76.958,93.472,76.808,95.751z"/>
	<path fill-rule="evenodd" clip-rule="evenodd" d="M1491.585,172.771c0.235-4.889-0.378-9.732-0.896-14.567
		c-0.791-7.386-1.719-14.76-2.703-22.124c-0.975-7.289-2.113-14.557-4.732-21.487c-1.414-3.738-2.865-7.435-5.657-10.467
		c-1.411-1.531-2.304-3.467-2.575-5.589c-0.313-2.457,0.903-3.643,3.363-3.246c0.856,0.138,1.741,0.39,2.497,0.801
		c2.169,1.18,4.389,1.304,6.731,0.691c1.666-0.436,2.08-0.206,2.666,1.395c0.357,0.976,0.504,1.994,0.549,3.048
		c0.272,6.307,0.396,12.632,1.512,18.866c2.307,12.892,4.167,25.875,7.626,38.538c1.034,3.786,2.407,7.445,4.194,10.952
		c1.259,2.468,2.807,4.644,5.174,6.167c1.332,0.856,2.217,2.071,2.599,3.611c0.508,2.051-0.127,3.213-2.135,3.884
		c-1.758,0.587-3.598,0.813-5.433,0.857c-1.958,0.048-3.8,0.337-5.502,1.378c-0.89,0.545-1.902,0.829-2.949,0.939
		c-0.902,0.096-1.393-0.285-1.311-1.22c0.293-3.323-0.925-6.278-2.218-9.217C1491.935,174.955,1491.5,173.926,1491.585,172.771z"/>
	<path fill-rule="evenodd" clip-rule="evenodd" d="M1184.508,130.227c0-22.072-0.001-44.143,0-66.215
		c0-3.68,0.004-3.688,3.748-3.686c13.756,0.007,27.51,0.019,41.265,0.031c0.64,0,1.279,0.014,1.917,0.057
		c1.08,0.072,1.566,0.756,1.566,1.751c0.001,1.008-0.506,1.666-1.594,1.707c-0.639,0.024-1.279,0.027-1.918,0.028
		c-12.715,0.014-25.431,0.025-38.146,0.038c-0.479,0-0.96-0.011-1.439,0.003c-1.797,0.053-1.834,0.056-1.841,1.924
		c-0.021,5.518-0.008,11.036-0.008,16.554c-0.001,23.831-0.004,47.662,0.004,71.493c0.001,2.916-0.424,2.893,2.807,2.895
		c10.236,0.005,20.473,0.018,30.708,0.03c0.72,0.001,1.439,0.011,2.158,0.042c1.041,0.044,1.638,0.576,1.648,1.644
		c0.011,1.077-0.638,1.603-1.628,1.712c-0.712,0.079-1.437,0.061-2.155,0.062c-9.996,0.008-19.992,0.012-29.988,0.018
		c-0.4,0-0.8-0.002-1.2,0c-2.337,0.016-2.35,0.016-2.352,2.345c-0.005,10.557-0.002,21.112-0.002,31.668
		c0,0.24-0.008,0.48,0.002,0.721c0.067,1.652,0.068,1.691,1.812,1.701c5.037,0.03,10.075,0.03,15.113,0.033
		c8.237,0.004,16.474,0,24.711,0.003c0.64,0,1.285-0.03,1.917,0.042c0.956,0.108,1.372,0.779,1.391,1.663
		c0.019,0.874-0.322,1.585-1.299,1.723c-0.631,0.088-1.273,0.121-1.91,0.122c-13.994,0.021-27.988,0.035-41.983,0.049
		c-0.399,0-0.802,0.017-1.198-0.021c-1.704-0.157-2.007-0.479-2.096-2.244c-0.031-0.638-0.01-1.279-0.01-1.919
		C1184.508,174.211,1184.508,152.219,1184.508,130.227z"/>
	<path fill-rule="evenodd" clip-rule="evenodd" d="M29.181,168.146c-0.26-1.876,0.311-3.656,1.731-5.122
		c1.566-1.617,2.261-3.606,2.75-5.747c1.299-5.686,2.28-11.431,3.231-17.181c0.42-2.536,1.255-4.949,1.891-7.421
		c2.211-8.601,4.958-17.016,8.557-25.146c1.143-2.582,1.779-5.295,1.647-8.152c-0.022-0.476-0.008-0.966,0.081-1.433
		c0.303-1.592,1.065-2.168,2.688-2.027c1.458,0.126,2.803,0.636,4.033,1.409c0.392,0.246,0.876,0.604,0.984,1.001
		c0.905,3.304,2.116,6.665-0.081,9.915c-5.019,7.428-7.416,15.882-9.468,24.434c-1.622,6.758-2.756,13.622-3.041,20.59
		c-0.088,2.155,0.01,4.305,0.226,6.461c0.273,2.73-0.318,5.318-2.464,7.198c-2.277,1.995-3.979,4.352-5.202,7.088
		c-0.757,1.695-1.976,2.903-3.751,3.475c-1.917,0.617-2.603,0.148-2.839-1.835C29.859,173.198,29.117,170.804,29.181,168.146z"/>
	<path fill-rule="evenodd" clip-rule="evenodd" d="M1522.611,170.643c-0.019,3.004-0.889,5.705-1.098,8.497
		c-0.077,1.022-0.848,1.313-1.735,1.17c-1.731-0.28-3.304-1.025-4.104-2.615c-1.668-3.316-3.696-6.28-6.449-8.841
		c-1.685-1.565-2.188-3.948-1.886-6.24c0.741-5.627,0.065-11.179-0.75-16.71c-1.309-8.876-3.461-17.542-6.703-25.935
		c-1.134-2.936-2.483-5.74-4.326-8.254c-2.52-3.436-1.626-6.973-0.64-10.549c0.227-0.821,1.025-1.183,1.744-1.553
		c0.932-0.481,1.924-0.781,2.947-0.981c1.765-0.345,2.577,0.136,3.003,1.831c0.135,0.536,0.197,1.11,0.17,1.661
		c-0.148,3.029,0.589,5.868,1.828,8.591c4.323,9.498,7.08,19.519,9.688,29.569c1.14,4.395,1.657,8.949,2.481,13.426
		c0.347,1.885,0.746,3.76,1.137,5.636c0.51,2.453,1.293,4.756,3.105,6.629C1522.304,167.298,1522.832,168.969,1522.611,170.643z"/>
	<path fill-rule="evenodd" clip-rule="evenodd" d="M1088.129,200.265c-4.496-0.092-8.903-0.769-13.262-1.877
		c-10.428-2.651-18.406-8.632-24.186-17.641c-4.381-6.827-6.963-14.357-8.576-22.242c-2.484-12.149-2.842-24.43-2.141-36.771
		c0.506-8.892,1.764-17.649,4.51-26.152c4.373-13.54,12.536-23.779,25.76-29.623c3.887-1.717,7.904-3.042,12.04-3.988
		c2.335-0.535,4.701-0.937,7.059-1.37c0.706-0.129,1.429-0.203,2.146-0.228c1.417-0.048,2.072,0.466,2.184,1.632
		c0.101,1.063-0.355,1.589-1.717,1.843c-1.806,0.338-3.626,0.597-5.432,0.94c-4.881,0.928-9.619,2.326-14.195,4.28
		c-11.099,4.74-18.803,12.701-23.084,24.014c-2.884,7.618-4.359,15.526-5.153,23.584c-0.787,7.975-0.853,15.979-0.433,23.971
		c0.521,9.935,1.942,19.724,5.589,29.072c0.961,2.462,2.091,4.841,3.392,7.142c5.743,10.164,14.398,16.248,25.813,18.528
		c3.86,0.771,7.757,1.071,11.672,1.253c0.56,0.026,1.123,0.015,1.679,0.07c1.38,0.14,2.035,0.759,2.015,1.86
		c-0.021,1.132-0.648,1.717-2.084,1.838c-0.634,0.053-1.277-0.014-1.917-0.039C1089.246,200.339,1088.688,200.297,1088.129,200.265z
		"/>
	<path fill-rule="evenodd" clip-rule="evenodd" d="M665.504,130.169c0-21.913,0-43.826,0.001-65.739
		c0-0.799-0.043-1.606,0.047-2.396c0.143-1.259,0.688-1.695,1.89-1.665c1.167,0.03,1.648,0.486,1.756,1.795
		c0.065,0.794,0.028,1.598,0.028,2.397c0,42.866-0.003,85.732,0.007,128.599c0.001,3.894-0.502,3.507,3.392,3.511
		c12.396,0.014,24.792,0.004,37.188,0.009c0.798,0,1.602,0.007,2.395,0.088c0.96,0.099,1.376,0.798,1.422,1.657
		c0.046,0.858-0.299,1.6-1.231,1.81c-0.617,0.139-1.264,0.199-1.897,0.199c-13.995,0.011-27.99,0.017-41.986,0.001
		c-2.728-0.003-3.006-0.329-3.007-3.328C665.501,174.795,665.505,152.482,665.504,130.169z"/>
	<path fill-rule="evenodd" clip-rule="evenodd" d="M806.438,132.018c0-21.347,0-42.694,0-64.041c0-0.56,0.005-1.119-0.001-1.679
		c-0.022-2.245-0.023-2.269-2.218-2.274c-5.597-0.014-11.192-0.003-16.79-0.007c-0.719-0.001-1.438-0.011-2.156-0.057
		c-1.078-0.069-1.533-0.724-1.547-1.75c-0.014-1.005,0.366-1.724,1.449-1.843c0.634-0.07,1.275-0.079,1.914-0.079
		c14.151-0.004,28.303-0.004,42.454-0.002c0.56,0,1.124-0.023,1.677,0.048c1.259,0.162,1.722,0.69,1.709,1.854
		c-0.013,1.167-0.461,1.688-1.767,1.782c-1.273,0.09-2.557,0.047-3.836,0.048c-5.116,0.005-10.233-0.015-15.351,0.014
		c-1.699,0.01-1.705,0.063-1.757,1.767c-0.02,0.639-0.004,1.279-0.004,1.919c0,42.853,0,85.707-0.001,128.56
		c0,0.8,0.052,1.607-0.046,2.396c-0.146,1.187-0.803,1.686-1.95,1.636c-1.038-0.046-1.641-0.596-1.74-1.614
		c-0.07-0.713-0.039-1.438-0.039-2.156C806.438,175.031,806.438,153.524,806.438,132.018z"/>
	<path fill-rule="evenodd" clip-rule="evenodd" d="M231.54,132.007c0,21.434,0,42.867-0.002,64.3c0,0.799-0.005,1.6-0.055,2.396
		c-0.066,1.056-0.686,1.569-1.719,1.607c-1.129,0.042-1.741-0.471-1.863-1.697c-0.087-0.871-0.044-1.757-0.044-2.637
		c-0.001-42.867,0.001-85.733-0.006-128.6c-0.001-3.683,0.409-3.346-3.329-3.355c-5.279-0.012-10.557,0-15.835-0.006
		c-0.719,0-1.439-0.014-2.155-0.074c-1.09-0.091-1.505-0.813-1.499-1.806c0.006-1.005,0.477-1.679,1.544-1.778
		c0.556-0.052,1.117-0.07,1.675-0.07c14.316-0.003,28.631-0.003,42.947,0c0.558,0,1.12,0.016,1.674,0.081
		c1.078,0.126,1.482,0.844,1.468,1.84c-0.014,1.018-0.495,1.673-1.566,1.745c-0.718,0.048-1.438,0.063-2.157,0.063
		c-5.438,0.005-10.876,0-16.315,0.004c-2.753,0.002-2.761,0.008-2.762,2.727C231.539,88.501,231.54,110.254,231.54,132.007z"/>
	<path fill-rule="evenodd" clip-rule="evenodd" d="M625.544,290.684c-5.197,0-10.395,0.001-15.592,0c-0.56,0-1.12,0.011-1.678-0.019
		c-0.47-0.025-1.031-0.03-0.999-0.709c0.027-0.571,0.548-0.454,0.912-0.489c0.396-0.039,0.801-0.001,1.198-0.037
		c2.998-0.275,4.308-1.566,4.488-4.558c0.101-1.674,0.074-3.356,0.075-5.035c0.005-9.355,0.007-18.711-0.006-28.065
		c-0.001-1.277-0.003-2.566-0.164-3.83c-0.325-2.551-1.325-3.476-3.859-3.741c-0.635-0.066-1.277-0.057-1.914-0.105
		c-0.433-0.033-0.777-0.21-0.728-0.725c0.04-0.42,0.392-0.438,0.703-0.452c0.479-0.022,0.959-0.023,1.438-0.023
		c10.715-0.001,21.429-0.001,32.144-0.001c0.399,0,0.8,0.02,1.199,0.003c0.673-0.028,1.037,0.239,1.07,0.951
		c0.134,2.874,0.291,5.747,0.423,8.621c0.018,0.387,0.008,0.831-0.53,0.902c-0.482,0.064-0.736-0.237-0.853-0.651
		c-0.28-0.999-0.479-2.024-0.816-3.003c-0.836-2.433-2.542-3.847-5.136-4.002c-4.953-0.297-9.912-0.075-14.868-0.137
		c-1.011-0.013-1.414,0.396-1.408,1.422c0.027,5.276,0.027,10.554-0.002,15.831c-0.005,1.007,0.353,1.47,1.38,1.45
		c3.836-0.071,7.68,0.213,11.506-0.181c2.971-0.306,4.19-1.489,4.865-4.419c0.166-0.721-0.085-1.981,0.932-1.897
		c1.051,0.088,0.561,1.307,0.569,2.017c0.048,3.917,0.023,7.835,0.022,11.753c0,0.32,0.015,0.642-0.011,0.959
		c-0.036,0.453,0.062,1.039-0.652,1.029c-0.467-0.007-0.665-0.378-0.748-0.793c-0.063-0.313-0.08-0.636-0.145-0.948
		c-0.724-3.455-2.159-4.699-5.758-4.87c-1.675-0.08-3.357-0.029-5.036-0.033c-1.759-0.003-3.521,0.059-5.276-0.02
		c-1.241-0.055-1.677,0.389-1.657,1.641c0.06,3.837,0.016,7.676,0.021,11.514c0.003,1.599-0.027,3.2,0.06,4.795
		c0.13,2.387,0.868,3.129,3.267,3.161c3.757,0.05,7.516,0.013,11.273-0.013c3.352-0.022,6.031-1.404,7.976-4.131
		c0.88-1.234,1.66-2.539,2.476-3.817c0.258-0.403,0.467-0.838,0.729-1.237c0.26-0.398,0.678-0.442,1.054-0.256
		c0.371,0.183,0.193,0.549,0.104,0.837c-0.26,0.839-0.533,1.674-0.813,2.507c-0.686,2.045-1.368,4.09-2.07,6.129
		c-1.021,2.964-0.406,2.661-3.814,2.673C635.779,290.696,630.662,290.684,625.544,290.684z"/>
	<path fill-rule="evenodd" clip-rule="evenodd" d="M117.012,221.918c-1.66,0.03-3.874-1.049-5.566-3.202
		c-1.47-1.87-2.323-4.022-2.551-6.358c-0.31-3.161,1.512-5.056,4.672-4.933c1.59,0.062,3.193,0.208,4.709,0.779
		c7.405,2.79,14.956,2.896,22.63,1.343c5.945-1.204,11.938-2.138,17.941-3.006c2.808-0.405,5.232,0.255,7.296,2.153
		c2.249,2.067,2.171,4.367-0.218,6.302c-2.593,2.101-5.649,2.854-8.929,2.933c-8.783,0.209-17.555,0.624-26.314,1.318
		c-2.015,0.159-3.926,0.638-5.819,1.294C122.671,221.302,120.442,221.918,117.012,221.918z"/>
	<path fill-rule="evenodd" clip-rule="evenodd" d="M1433.504,224.614c-1.674-0.187-3.208-0.306-4.621-0.878
		c-5.073-2.055-10.443-2.143-15.776-2.43c-6.778-0.366-13.561-0.62-20.34-0.962c-2.636-0.133-4.966-1.153-6.997-2.807
		c-2.249-1.832-2.368-3.89-0.344-5.933c1.773-1.789,3.895-2.716,6.481-2.442c5.882,0.621,11.683,1.742,17.5,2.765
		c4.401,0.772,8.801,1.575,13.316,1.252c3.451-0.247,6.802-0.943,10.052-2.081c1.918-0.671,3.87-0.977,5.874-0.949
		c2.726,0.036,4.54,1.928,4.229,4.653c-0.353,3.084-1.528,5.856-3.97,7.954C1437.301,224.138,1435.369,224.502,1433.504,224.614z"/>
	<path fill-rule="evenodd" clip-rule="evenodd" d="M861.574,266.638c0.185,5.333-0.57,10.512-2.923,15.367
		c-1.642,3.388-3.903,6.197-7.335,7.956c-4.619,2.366-9.246,1.732-12.98-1.947c-3.158-3.11-5.049-6.963-6.132-11.215
		c-1.879-7.374-1.705-14.721,0.576-21.982c1.091-3.472,2.819-6.61,5.486-9.157c5.31-5.071,11.655-4.955,16.721,0.342
		c4.23,4.424,5.999,9.905,6.563,15.847C861.701,263.431,861.574,265.04,861.574,266.638z"/>
	<path fill-rule="evenodd" clip-rule="evenodd" d="M682.539,250.162c-0.001,2.317,0.008,4.636-0.008,6.954
		c-0.003,0.447,0.087,1.039-0.613,1.068c-0.641,0.027-0.71-0.485-0.793-0.975c-0.295-1.734-0.693-3.441-1.375-5.074
		c-2.068-4.951-7.033-8.105-12.356-7.776c-3.097,0.191-5.488,1.622-6.981,4.37c-1.362,2.506-0.983,5.104,0.979,7.317
		c1.124,1.268,2.509,2.222,3.901,3.161c2.852,1.924,5.907,3.504,8.896,5.193c2.018,1.141,4.042,2.275,5.904,3.658
		c4.11,3.051,6.214,7.066,5.422,12.244c-0.771,5.042-3.884,8.295-8.484,10.161c-3.675,1.491-7.496,1.448-11.303,0.547
		c-2.095-0.495-4.14-1.197-6.224-1.741c-2.201-0.574-2.35-0.479-3.535,1.574c-0.199,0.347-0.365,0.748-0.865,0.648
		c-0.513-0.104-0.514-0.553-0.514-0.944c-0.005-4.716-0.004-9.432,0.007-14.147c0.001-0.395,0.047-0.841,0.559-0.904
		c0.489-0.061,0.695,0.317,0.801,0.71c0.376,1.386,0.702,2.785,1.098,4.165c2.041,7.116,10.334,10.233,16.67,8.299
		c5.854-1.788,7.576-8.246,3.525-12.838c-1.016-1.151-2.241-2.041-3.557-2.815c-3.373-1.986-6.748-3.968-10.115-5.964
		c-1.651-0.978-3.256-2.027-4.74-3.25c-3.855-3.174-5.605-7.242-4.427-12.13c1.189-4.935,4.649-7.891,9.472-9.219
		c3.591-0.989,7.132-0.526,10.597,0.703c0.978,0.347,1.923,0.79,2.911,1.101c1.944,0.61,2.63,0.334,3.65-1.505
		c0.254-0.458,0.429-0.882,1.015-0.731c0.641,0.164,0.472,0.749,0.476,1.186C682.551,245.525,682.541,247.844,682.539,250.162z"/>
	<path fill-rule="evenodd" clip-rule="evenodd" d="M152.291,77.705c0.472,0.081,0.948,0.142,1.415,0.244
		c3.119,0.681,5.442,2.623,7.515,4.887c1.038,1.134,0.748,2.24-0.729,2.467c-3.474,0.535-5.453,2.912-7.088,5.592
		c-3.508,5.752-7.544,11.107-11.857,16.259c-1.67,1.995-2.999,4.122-3.716,6.631c-0.536,1.872-0.862,3.712-0.2,5.645
		c0.516,1.503-0.007,2.821-1.084,3.945c-1.326,1.384-3.074,1.301-4.124-0.086c-1.395-1.846-2.99-3.541-4.501-5.299
		c-1.202-1.398-2.494-2.69-4.033-3.736c-2.152-1.462-2.092-3.763,0.119-5.173c0.532-0.34,1.142-0.571,1.736-0.799
		c0.67-0.257,1.352-0.504,2.049-0.667c3.45-0.808,5.999-2.799,7.976-5.711c2.564-3.774,4.85-7.714,7.175-11.63
		c2.121-3.574,4.221-7.162,6.259-10.783C149.914,78.225,150.823,77.553,152.291,77.705z"/>
	<path fill-rule="evenodd" clip-rule="evenodd" d="M1414.014,123c0.022-0.181,0.021-0.427,0.086-0.655
		c1.248-4.463-0.432-8.24-3.091-11.565c-4.548-5.688-9.03-11.398-12.86-17.615c-1.553-2.521-3.548-4.705-6.791-5.271
		c-1.521-0.265-1.807-1.264-0.771-2.399c2.185-2.395,4.645-4.399,7.989-4.968c2.269-0.386,2.917-0.127,4.117,1.908
		c3.774,6.406,7.37,12.917,11.344,19.206c0.47,0.743,0.984,1.458,1.441,2.209c2.142,3.527,5.157,5.804,9.237,6.678
		c1.239,0.265,2.47,0.709,3.477,1.553c1.771,1.484,1.691,3.432-0.252,4.712c-1.696,1.116-3.06,2.563-4.369,4.077
		c-1.308,1.512-2.592,3.044-3.909,4.547c-0.835,0.953-1.591,2.11-3.185,1.446C1415.083,126.283,1413.975,124.6,1414.014,123z"/>
	<path fill-rule="evenodd" clip-rule="evenodd" d="M62.616,185.507c3.248,0.392,6.311,1.757,7.854,5.459
		c0.797,1.913,1.618,3.818,2.48,5.703c0.346,0.758,0.313,1.273-0.372,1.854c-2.534,2.144-2.826,4.859-1.758,7.816
		c0.432,1.195,0.991,2.35,1.569,3.484c0.746,1.465,0.532,2.799-0.471,4.006c-0.982,1.183-2.235,1.822-3.812,1.369
		c-4.671-1.343-9.34-2.692-13.997-4.085c-1.075-0.322-2.015-0.967-2.835-1.74c-0.99-0.933-1.404-1.947-1.04-3.417
		c1.151-4.642,2.188-9.313,3.542-13.901C54.987,187.948,58.347,185.364,62.616,185.507z"/>
	<path fill-rule="evenodd" clip-rule="evenodd" d="M1501.69,209.509c0.001,0.923-0.396,1.596-0.962,2.19
		c-1.132,1.188-2.522,1.944-4.094,2.355c-4.164,1.088-8.316,2.216-12.39,3.616c-1.712,0.588-3.147,0.186-4.315-1.151
		c-1.202-1.376-1.206-2.86-0.328-4.424c0.861-1.536,1.48-3.153,1.805-4.911c0.396-2.15-0.063-4.041-1.674-5.44
		c-1.211-1.053-1.23-1.948-0.535-3.263c0.817-1.545,1.404-3.212,2.116-4.815c1.591-3.58,5.019-5.668,8.995-5.497
		c3.343,0.143,6.516,2.662,7.574,6.343c1.168,4.058,2.108,8.181,3.144,12.275C1501.261,207.714,1501.48,208.645,1501.69,209.509z"/>
	<path fill-rule="evenodd" clip-rule="evenodd" d="M715.087,266.122c0,5.035-0.006,10.07,0.004,15.105
		c0.002,1.278,0.002,2.561,0.094,3.835c0.214,2.953,1.441,4.138,4.336,4.393c0.725,0.064,2.032-0.416,2.054,0.47
		c0.03,1.271-1.346,0.722-2.093,0.729c-5.194,0.06-10.39,0.041-15.585,0.038c-0.556,0-1.118-0.021-1.667-0.102
		c-0.337-0.05-0.513-0.315-0.478-0.694c0.03-0.321,0.289-0.38,0.497-0.397c0.636-0.054,1.281-0.016,1.915-0.085
		c2.357-0.258,3.515-1.401,3.926-3.776c0.22-1.267,0.271-2.54,0.271-3.82c-0.002-11.189,0-22.38,0-33.569
		c0-0.399-0.024-0.8-0.003-1.198c0.046-0.905-0.351-1.296-1.273-1.278c-2.317,0.044-4.641-0.058-6.951,0.078
		c-3.277,0.193-5.489,2.033-6.46,5.158c-0.142,0.456-0.189,0.945-0.355,1.392c-0.198,0.533,0.12,1.563-0.818,1.448
		c-1.11-0.136-0.529-1.144-0.519-1.761c0.033-2.077,0.152-4.152,0.238-6.229c0.014-0.319,0.013-0.64,0.037-0.959
		c0.151-1.968,0.153-1.99,2.086-2.001c3.276-0.018,6.554-0.005,9.831-0.005c8.313,0,16.625-0.005,24.937,0.003
		c2.201,0.002,2.223,0.019,2.325,2.247c0.11,2.395,0.193,4.791,0.246,7.188c0.012,0.562,0.413,1.46-0.567,1.53
		c-0.929,0.066-0.617-0.935-0.875-1.449c-0.103-0.206-0.089-0.468-0.145-0.701c-0.808-3.393-2.968-5.484-6.451-5.817
		c-2.457-0.235-4.95-0.075-7.427-0.116c-0.829-0.014-1.14,0.384-1.12,1.161c0.014,0.56-0.008,1.119-0.008,1.679
		C715.086,254.452,715.086,260.287,715.087,266.122z"/>
	<path fill-rule="evenodd" clip-rule="evenodd" d="M105.797,107.969c-1.257,0.004-2.096-0.608-2.628-1.728
		c-0.445-0.936-0.864-1.896-1.425-2.761c-1.022-1.579-2.346-2.757-4.276-3.234c-1.225-0.302-2.396-0.874-3.542-1.425
		c-0.862-0.415-0.897-1.121-0.161-1.694c0.752-0.584,1.567-1.112,2.417-1.542c3.453-1.748,6.046-4.295,7.961-7.694
		c2.312-4.103,4.879-8.059,7.52-11.965c1.445-2.137,2.155-4.625,3.056-7.008c1.048-2.772,2.321-5.431,3.724-8.031
		c1.215-2.254,2.703-2.422,4.485-0.596c1.724,1.767,3.035,3.915,5.102,5.372c1.02,0.719,1.022,1.72,0.39,2.751
		c-0.846,1.377-1.856,2.674-3.181,3.549c-4.741,3.133-7.452,7.771-9.822,12.716c-1.76,3.671-3.535,7.34-5.47,10.921
		c-0.976,1.806-1.211,3.588-0.807,5.521c0.229,1.099,0.419,2.201,0.36,3.326C109.382,106.697,108.041,107.963,105.797,107.969z"/>
	<path fill-rule="evenodd" clip-rule="evenodd" d="M104.306,53.204c-0.089,0.818-0.505,1.434-1.321,1.477
		c-3.239,0.17-5.346,2.289-7.544,4.266c-3.55,3.192-6.226,7.06-8.568,11.175c-1.62,2.846-3.133,5.754-4.777,8.585
		c-1.855,3.193-2.204,6.618-1.799,10.191c0.054,0.475,0.172,0.943,0.216,1.418c0.037,0.392,0.084,0.852-0.262,1.111
		c-0.505,0.377-0.915-0.042-1.253-0.338c-1.95-1.702-4.225-2.045-6.722-1.851c-2.154,0.168-4.284,0.474-6.42,0.767
		c-0.632,0.087-1.267,0.185-1.902,0.204c-0.983,0.028-1.265-0.55-1.024-1.409c0.105-0.375,0.32-0.734,0.549-1.056
		c4.216-5.916,8.018-12.131,12.906-17.558c2.999-3.33,6.204-6.45,9.398-9.583c2.32-2.275,4.157-4.792,4.925-8.052
		c0.579-2.458,2.063-4.487,3.788-6.302c1.376-1.446,2.607-1.174,3.427,0.701c0.318,0.729,0.535,1.512,0.932,2.194
		c0.858,1.479,2.291,2.175,3.887,2.571C103.559,51.92,104.285,52.186,104.306,53.204z"/>
	<path fill-rule="evenodd" clip-rule="evenodd" d="M1442.312,106.063c0.158-1.21,0.347-2.634,0.53-4.058
		c0.114-0.887,0.018-1.709-0.407-2.544c-2.644-5.195-5.255-10.406-7.851-15.625c-1.628-3.271-3.777-6.073-6.79-8.218
		c-1.758-1.252-3.304-2.769-4.463-4.632c-0.587-0.944-0.644-1.931,0.281-2.558c2.17-1.471,3.519-3.687,5.286-5.518
		c1.656-1.716,3.178-1.532,4.364,0.569c2.13,3.769,3.634,7.813,5.196,11.83c0.583,1.499,1.354,2.87,2.227,4.22
		c2.473,3.822,4.941,7.651,7.236,11.58c1.711,2.929,3.99,5.15,6.945,6.746c0.982,0.531,1.971,1.072,2.87,1.728
		c1.031,0.752,0.991,1.392-0.113,1.974c-0.912,0.481-1.881,0.937-2.879,1.156c-2.762,0.607-4.412,2.416-5.587,4.817
		c-0.105,0.215-0.209,0.432-0.313,0.647c-1.096,2.243-1.993,2.724-4.092,2.193c-1.733-0.438-2.461-1.586-2.441-3.851
		C1442.313,106.44,1442.312,106.36,1442.312,106.063z"/>
	<path fill-rule="evenodd" clip-rule="evenodd" d="M1487.479,92.771c-2.677-0.316-5.145-0.557-7.597-0.91
		c-2.584-0.373-4.933,0.041-6.991,1.725c-0.363,0.297-0.736,0.713-1.255,0.407c-0.495-0.292-0.394-0.852-0.327-1.299
		c0.316-2.144,0.514-4.287,0.143-6.442c-0.246-1.425-0.639-2.805-1.33-4.086c-2.278-4.221-4.542-8.449-7.079-12.524
		c-2.264-3.635-5.109-6.753-8.329-9.541c-1.581-1.37-3.263-2.59-5.487-2.708c-0.38-0.021-0.797-0.176-1.114-0.39
		c-0.967-0.654-0.982-1.968,0.09-2.262c3.023-0.829,5.004-2.476,5.948-5.588c0.454-1.495,1.818-1.501,3.025-0.271
		c1.878,1.913,3.341,4.114,3.983,6.736c0.674,2.742,2.152,4.945,4.095,6.92c3.083,3.136,6.322,6.118,9.257,9.403
		c4.167,4.665,7.89,9.654,11.232,14.938c0.853,1.349,1.895,2.58,2.722,3.942C1489.353,92.284,1488.979,92.816,1487.479,92.771z"/>
	<path fill-rule="evenodd" clip-rule="evenodd" d="M802.2,285.405c5.571-0.091,11.147,0.247,16.714-0.285
		c1.654-0.158,3.031-0.95,4.146-2.181c0.32-0.354,0.598-0.748,0.934-1.085c0.235-0.235,0.592-0.321,0.86-0.111
		c0.14,0.109,0.228,0.452,0.165,0.627c-0.915,2.556-1.848,5.106-2.805,7.646c-0.287,0.762-1.009,0.67-1.64,0.674
		c-1.758,0.011-3.517,0.007-5.274,0.007c-6.154,0-12.309,0-18.463-0.002c-0.639-0.001-1.284,0.03-1.916-0.043
		c-0.93-0.108-1.25-0.756-0.706-1.475c0.381-0.503,0.904-0.898,1.371-1.334c4.503-4.199,8.915-8.487,12.881-13.209
		c2.475-2.947,4.726-6.043,6.277-9.594c1.166-2.667,1.903-5.427,1.675-8.372c-0.349-4.501-3.19-8.111-7.206-9.178
		c-4.027-1.069-8.63,0.754-11.063,4.434c-0.524,0.794-0.91,1.682-1.343,2.534c-0.197,0.388-0.459,0.673-0.915,0.59
		c-0.546-0.1-0.515-0.563-0.444-0.943c1.041-5.694,4.25-10.907,11.299-12.018c6.29-0.99,12.679,2.424,14.855,8.053
		c1.267,3.274,0.993,6.591-0.164,9.85c-1.326,3.736-3.479,7.003-5.939,10.067c-3.757,4.679-7.993,8.929-12.082,13.31
		c-0.481,0.517-0.96,1.037-1.44,1.555C802.052,285.083,802.126,285.244,802.2,285.405z"/>
	<path fill-rule="evenodd" clip-rule="evenodd" d="M874.216,285.416c5.496-0.105,10.995,0.217,16.488-0.267
		c1.749-0.154,3.2-0.935,4.376-2.23c0.32-0.354,0.597-0.749,0.938-1.079c0.235-0.229,0.594-0.317,0.854-0.076
		c0.134,0.124,0.14,0.42,0.145,0.64c0.003,0.148-0.097,0.301-0.151,0.45c-0.792,2.176-1.621,4.339-2.362,6.532
		c-0.339,0.999-0.926,1.329-1.955,1.325c-8.393-0.03-16.785-0.016-25.178-0.022c-0.465-0.001-1.021,0.094-1.284-0.417
		c-0.306-0.593,0.02-1.06,0.456-1.467c1.285-1.199,2.579-2.39,3.848-3.607c4.27-4.099,8.448-8.285,12.031-13.016
		c2.673-3.529,4.916-7.278,5.768-11.717c0.26-1.351,0.342-2.697,0.208-4.054c-0.434-4.398-3.263-7.888-7.201-8.926
		c-3.939-1.038-8.486,0.709-10.919,4.26c-0.582,0.85-0.996,1.815-1.477,2.734c-0.2,0.383-0.467,0.667-0.927,0.564
		c-0.537-0.12-0.494-0.583-0.421-0.96c0.953-4.864,3.079-8.957,7.877-11.013c4.121-1.767,8.3-1.57,12.275,0.492
		c5.429,2.816,7.865,8.54,6.387,14.618c-0.749,3.075-2.263,5.786-3.965,8.41c-2.361,3.64-5.297,6.806-8.232,9.97
		c-2.599,2.802-5.215,5.586-7.823,8.378C874.052,285.099,874.134,285.258,874.216,285.416z"/>
	<path fill-rule="evenodd" clip-rule="evenodd" d="M931.342,242.894c-0.479,2.084-1.477,3.725-2.271,5.439
		c-0.372,0.806-1.231,0.596-1.931,0.598c-3.518,0.012-7.039,0.096-10.552-0.033c-1.612-0.059-2.522,0.461-3.093,1.946
		c-0.537,1.397-1.26,2.723-1.949,4.185c1.722,0.45,3.255,0.813,4.764,1.256c2.945,0.864,5.633,2.247,8.025,4.18
		c7.761,6.267,8.731,16.69,2.145,24.198c-4.277,4.875-9.759,7.065-16.243,6.632c-1.771-0.118-3.485-0.509-4.893-1.71
		c-1.468-1.254-1.891-2.805-1.105-3.994c0.78-1.186,2.461-1.585,4.104-0.881c0.727,0.311,1.395,0.775,2.057,1.219
		c3.542,2.377,7.198,2.576,10.799,0.296c3.781-2.395,5.46-5.964,5.015-10.421c-0.376-3.757-2.207-6.802-4.998-9.277
		c-3.557-3.156-7.84-4.521-12.485-4.914c-3.511-0.297-3.522,0.167-1.842-3.24c2.263-4.585,4.568-9.149,6.784-13.758
		c0.578-1.203,1.227-1.791,2.683-1.76C921.297,242.958,926.241,242.894,931.342,242.894z"/>
	<path fill-rule="evenodd" clip-rule="evenodd" d="M111.173,203.701c-1.119,0.586-2.16,1.023-3.086,1.636
		c-2.571,1.701-3.672,4.033-3.178,7.184c0.491,3.13,1.612,5.97,3.444,8.586c-1.029,0.813-2.156,0.977-3.208,1.3
		c-3.894,1.194-7.77,2.461-11.859,2.854c-1.125,0.108-2.231,0.096-3.342-0.098c-0.813-0.142-1.574-0.435-2.101-1.061
		c-1.388-1.649-2.782-3.301-4.056-5.038c-1.091-1.49-0.8-2.191,1.025-2.713c2.162-0.617,4.174-1.593,6.24-2.444
		c4.798-1.976,8.15-5.535,10.823-9.822C104.214,200.336,108.095,200.106,111.173,203.701z"/>
	<path fill-rule="evenodd" clip-rule="evenodd" d="M1443.579,224.044c0.063-0.943,0.638-1.448,0.997-2.055
		c1.455-2.459,2.211-5.14,2.405-7.957c0.181-2.624-1.036-4.629-3.207-6.034c-0.993-0.643-2.074-1.151-3.204-1.769
		c1.533-1.732,3.289-2.591,5.539-2.311c1.442,0.18,2.552,0.859,3.322,2.092c0.423,0.676,0.848,1.351,1.27,2.026
		c3.697,5.93,9.49,8.812,15.847,10.843c2.323,0.742,2.562,1.324,1.025,3.312c-1.123,1.451-2.312,2.853-3.472,4.274
		c-0.881,1.081-2.116,1.391-3.413,1.49c-1.442,0.111-2.862-0.103-4.284-0.362C1452.007,226.79,1447.784,225.402,1443.579,224.044z"
		/>
	<path fill-rule="evenodd" clip-rule="evenodd" d="M50.284,227.323c-0.964,0.106-1.919,0.017-2.857-0.207
		c-2.718-0.649-5.43-1.328-8.152-1.963c-2.129-0.497-3.563-1.837-4.332-3.791c-1.352-3.431-2.311-6.967-2.432-10.695
		c-0.048-1.469,0.438-2.667,1.458-3.662c1.13-1.104,2.761-1.168,3.494,0.2c1.34,2.499,3.689,3.421,5.976,4.53
		c2.659,1.29,5.323,2.571,7.994,3.838c1.307,0.62,2.133,1.473,2.308,3.045c0.256,2.294,1.531,4.152,2.974,5.913
		c1.278,1.559,1.04,2.186-0.928,2.418C53.963,227.166,52.119,227.206,50.284,227.323z"/>
	<path fill-rule="evenodd" clip-rule="evenodd" d="M1500.268,229.897c-1.273-0.099-2.552-0.149-3.817-0.306
		c-2.546-0.315-2.715-0.706-1.181-2.655c0.693-0.88,1.39-1.756,1.849-2.782c0.325-0.726,0.819-1.483,0.819-2.227
		c0-2.335,1.493-3.311,3.307-4.158c3.178-1.485,6.318-3.049,9.49-4.548c1.334-0.631,2.361-1.501,3.16-2.791
		c1.34-2.164,3.023-2.104,4.491-0.031c0.683,0.964,0.919,2.003,0.855,3.159c-0.201,3.708-1.178,7.236-2.553,10.651
		c-0.578,1.437-1.61,2.729-3.105,3.165C1509.235,228.644,1504.911,230.149,1500.268,229.897z"/>
	<path fill-rule="evenodd" clip-rule="evenodd" d="M44.756,184.338c1.935,0.098,3.904,0.396,5.791,1.078
		c1.403,0.508,1.492,0.725,0.798,2.073c-1.907,3.706-3.47,7.529-4.023,11.693c-0.178,1.34-0.213,2.698-0.341,4.046
		c-0.248,2.604-1.376,3.499-3.969,3.178c-3.323-0.411-5.27-2.239-5.749-5.625c-0.384-2.708-1.389-5.227-2.117-7.829
		c-0.973-3.481,0.856-6.709,4.365-7.787C41.199,184.647,42.926,184.39,44.756,184.338z"/>
	<path fill-rule="evenodd" clip-rule="evenodd" d="M1507.297,187.081c1.365,0.047,2.868,0.18,4.352,0.573
		c4.086,1.085,5.926,4.303,4.76,8.376c-0.813,2.838-1.884,5.611-2.083,8.601c-0.073,1.104-0.685,1.947-1.537,2.609
		c-0.956,0.741-2.016,1.286-3.194,1.595c-3.181,0.834-4.693-0.136-4.789-3.364c-0.158-5.317-1.71-10.207-4.124-14.883
		c-1-1.937-0.96-1.961,1.039-2.649C1503.479,187.333,1505.292,187.1,1507.297,187.081z"/>
	<path fill-rule="evenodd" clip-rule="evenodd" d="M184.305,186.658c2.114,0.063,3.832,0.97,5.244,2.494
		c0.632,0.683,0.548,1.344-0.326,1.707c-3.542,1.473-5.286,4.427-6.57,7.798c-0.909,2.384-1.909,4.73-3.139,6.973
		c-0.539,0.983-1.136,1.928-1.982,2.678c-1.991,1.766-4.055,1.936-6.043,0.271c-2.034-1.703-4.211-3.143-6.566-4.34
		c-0.354-0.18-0.703-0.389-1.005-0.643c-1.178-0.99-1-2.391,0.417-3.032c0.495-0.224,1.069-0.296,1.616-0.373
		c0.789-0.112,1.583-0.19,2.378-0.24c3.161-0.196,5.327-1.627,6.561-4.673c0.927-2.289,2.394-4.335,4.193-6.066
		C180.531,187.818,182.115,186.595,184.305,186.658z"/>
	<path fill-rule="evenodd" clip-rule="evenodd" d="M1377.311,212.28c-1.77-0.12-3.196-1.158-4.264-2.781
		c-1.766-2.688-2.895-5.678-4.086-8.635c-0.509-1.262-1.035-2.501-1.85-3.605c-1.102-1.496-2.346-2.786-4.077-3.596
		c-1.537-0.719-1.552-1.202-0.3-2.379c2.492-2.344,5.729-2.589,8.508-0.582c2.317,1.675,4.148,3.887,5.168,6.479
		c1.535,3.899,4.282,5.522,8.269,5.579c0.792,0.012,1.585,0.18,2.37,0.318c0.777,0.138,1.271,0.646,1.503,1.382
		c0.264,0.835-0.239,1.365-0.829,1.816c-0.315,0.24-0.665,0.444-1.019,0.624c-2.286,1.16-4.438,2.519-6.362,4.223
		C1379.543,211.832,1378.637,212.296,1377.311,212.28z"/>
	<path fill-rule="evenodd" clip-rule="evenodd" d="M57.583,218.904c1.486-0.208,2.496,0.384,3.547,0.646
		c2.423,0.604,4.688,0.507,6.926-0.76c2.304-1.303,4.935-1.79,7.443-2.546c1.955-0.589,3.6,0.321,4.563,2.129
		c0.6,1.125,1.205,2.252,1.72,3.417c0.894,2.023,0.438,3.223-1.614,3.93c-1.522,0.524-2.903,1.271-4.301,2.042
		c-3.298,1.819-6.851,1.904-10.468,1.306c-0.813-0.135-1.555-0.518-2.061-1.137C61.127,225.222,58.904,222.511,57.583,218.904z"/>
	<path fill-rule="evenodd" clip-rule="evenodd" d="M106.946,49.621c-2.197-0.272-4.114-1.077-5.151-3.284
		c-0.55-1.168-1.204-2.258-2.343-2.965c-0.49-0.305-0.994-0.687-0.792-1.321c0.186-0.582,0.795-0.722,1.359-0.828
		c1.333-0.25,2.659-0.689,3.997-0.725c2.185-0.057,4.033-0.884,5.801-2.009c2.156-1.372,4.274-2.803,6.429-4.178
		c2.366-1.51,4.865-2.764,7.583-3.501c2.867-0.777,5.431,0.245,6.836,2.619c1.117,1.887,0.655,2.986-1.496,3.399
		c-1.332,0.255-2.687,0.572-4.028,0.556c-2.759-0.033-5.146,0.95-7.452,2.29c-0.966,0.562-1.921,1.149-2.92,1.647
		c-1.825,0.912-2.959,2.378-3.633,4.26c-0.242,0.676-0.496,1.351-0.793,2.003C109.535,49.358,108.883,49.744,106.946,49.621z"/>
	<path fill-rule="evenodd" clip-rule="evenodd" d="M1444.758,52.276c-1.607,0.053-2.635-0.395-3.154-1.696
		c-0.059-0.148-0.138-0.29-0.186-0.441c-2.146-6.784-7.786-8.742-13.893-10.008c-1.717-0.356-3.486-0.453-5.21-0.784
		c-1.857-0.356-2.247-1.217-1.399-2.895c1.249-2.469,4.299-3.825,6.622-3.099c2.693,0.841,5.238,1.946,7.615,3.434
		c2.234,1.398,4.407,2.895,6.632,4.308c1.979,1.256,4.061,2.141,6.498,2.154c1.25,0.007,2.523,0.385,3.741,0.747
		c1.202,0.356,1.399,1.153,0.411,1.846c-1.246,0.874-1.96,2.061-2.622,3.346C1448.698,51.354,1446.686,52.003,1444.758,52.276z"/>
	<path fill-rule="evenodd" clip-rule="evenodd" d="M1494.058,221.442c-0.3,1.594-1.076,2.802-1.84,3.981
		c-0.954,1.475-2.024,2.876-3.077,4.284c-1.071,1.433-2.488,2.096-4.316,2.186c-3.759,0.185-7.344-0.158-10.518-2.449
		c-0.779-0.563-1.75-0.746-2.656-1.061c-2.045-0.708-2.54-1.937-1.646-3.938c0.455-1.021,1.012-1.996,1.522-2.992
		c1.164-2.267,2.696-3.177,5.042-2.471c2.284,0.688,4.709,1.112,6.781,2.327c2.716,1.591,5.433,1.588,8.3,0.645
		C1492.369,221.717,1493.102,221.353,1494.058,221.442z"/>
	<path fill-rule="evenodd" clip-rule="evenodd" d="M176.936,59.152c1.585,0.199,3.163,0.467,4.373,1.664
		c1.155,1.142,1.204,2.134,0.088,3.322c-1.275,1.358-2.869,2.315-4.57,3.003c-2.523,1.02-4.208,2.643-5.102,5.296
		c-0.883,2.623-2.776,4.648-4.887,6.395c-2.023,1.675-2.918,1.531-4.444-0.553c-0.723-0.987-1.66-1.694-2.653-2.377
		c-1.742-1.198-1.843-2.69-0.314-4.137c0.4-0.378,0.878-0.699,1.369-0.952c4.414-2.27,7.929-5.618,11.085-9.354
		C173.246,59.842,174.944,59.275,176.936,59.152z"/>
	<path fill-rule="evenodd" clip-rule="evenodd" d="M126.657,57.215c0.08-1.944,2.12-3.738,4.494-3.905
		c1.035-0.073,2.089,0.039,3.109-0.113c2.019-0.3,3.77-1.271,5.396-2.464c3.094-2.272,6.359-4.284,9.606-6.322
		c0.471-0.295,0.964-0.562,1.469-0.793c1.023-0.472,1.862-0.209,2.496,0.713c1.115,1.623,1.469,3.526,1.863,5.387
		c0.197,0.934-0.593,1.165-1.392,1.196c-2.412,0.096-4.715,0.792-7.056,1.282c-4.332,0.907-7.238,3.522-9.02,7.495
		c-0.555,1.237-1.016,2.528-1.688,3.698c-0.88,1.532-1.631,1.708-3.164,0.855c-2.436-1.355-4.095-3.529-5.781-5.664
		C126.674,58.179,126.647,57.699,126.657,57.215z"/>
	<path fill-rule="evenodd" clip-rule="evenodd" d="M1374.502,61.893c2.358-0.014,4.011,0.635,5.361,2.261
		c3.133,3.77,6.718,7.037,11.102,9.343c0.558,0.293,1.11,0.666,1.539,1.12c1.294,1.37,1.166,2.725-0.389,3.815
		c-1.117,0.783-2.189,1.55-2.963,2.73c-1.122,1.712-2.043,1.885-3.729,0.628c-2.201-1.641-3.973-3.687-5.151-6.199
		c-0.237-0.505-0.475-1.015-0.646-1.544c-0.583-1.795-1.821-2.952-3.493-3.723c-1.741-0.803-3.471-1.637-4.965-2.861
		c-2.248-1.842-2.006-3.647,0.665-4.896C1372.774,62.127,1373.758,61.764,1374.502,61.893z"/>
	<path fill-rule="evenodd" clip-rule="evenodd" d="M1417.503,67.292c-0.724-0.017-1.204-0.436-1.509-1.026
		c-0.476-0.92-0.95-1.85-1.32-2.816c-1.862-4.858-5.18-7.956-10.417-8.856c-1.965-0.337-3.886-0.888-5.894-1.03
		c-1.772-0.126-1.968-0.461-1.519-2.088c0.298-1.078,0.593-2.164,1.003-3.202c0.943-2.391,2.081-2.792,4.238-1.439
		c2.912,1.827,5.855,3.619,8.634,5.635c2.989,2.169,6.044,3.845,9.905,3.565c1.419-0.103,2.622,0.642,3.546,1.729
		c1.195,1.408,1.221,2.613,0.067,4.071c-1.341,1.695-2.74,3.341-4.551,4.569C1419.026,66.853,1418.35,67.289,1417.503,67.292z"/>
	<path fill-rule="evenodd" clip-rule="evenodd" d="M86.537,212.174c-2.705-0.46-5.821-0.781-8.715-1.948
		c-2.969-1.198-3.681-3.162-2.443-6.15c0.426-1.028,0.881-2.056,1.442-3.014c0.944-1.614,1.752-1.637,2.771-0.087
		c0.835,1.272,1.749,2.464,2.842,3.524c1.734,1.684,3.737,2.307,6.127,1.782c1.553-0.341,3.128-0.626,4.708-0.783
		c1.843-0.184,2.292,0.572,1.452,2.26c-0.176,0.354-0.402,0.689-0.649,0.998C92.879,210.25,88.839,212.165,86.537,212.174z"/>
	<path fill-rule="evenodd" clip-rule="evenodd" d="M1458.899,208.213c1.23,0.196,2.914,0.348,4.534,0.752
		c2.269,0.566,4.069-0.159,5.709-1.634c1.259-1.133,2.24-2.482,3.188-3.876c0.817-1.203,1.646-1.241,2.377-0.045
		c0.957,1.565,1.757,3.231,2.223,5.024c0.314,1.208-0.165,2.184-0.996,3.034c-0.859,0.881-1.896,1.433-3.079,1.761
		c-2.468,0.684-4.974,1.189-7.51,1.498c-2.64,0.32-7.289-2.197-8.303-4.393C1456.301,208.731,1456.697,208.136,1458.899,208.213z"/>
	<path fill-rule="evenodd" clip-rule="evenodd" d="M199.014,39.61c-0.007-0.001,0.395,0.031,0.771,0.146
		c0.708,0.216,0.865,0.708,0.422,1.273c-0.489,0.625-1.029,1.221-1.614,1.756c-1.83,1.672-3.568,3.427-5.159,5.329
		c-1.653,1.975-3.036,4.098-3.76,6.606c-0.405,1.403-1.127,2.648-2.187,3.658c-1.292,1.231-2.506,1.322-3.821,0.153
		c-0.946-0.842-1.795-1.824-2.545-2.848c-0.826-1.126-0.67-1.772,0.455-2.636c0.437-0.335,0.932-0.669,1.453-0.811
		c3.618-0.989,5.909-3.647,8.117-6.397c1.199-1.493,2.288-3.077,3.681-4.404C195.886,40.427,197.061,39.614,199.014,39.61z"/>
	<path fill-rule="evenodd" clip-rule="evenodd" d="M1353.328,42.247c1.085,0.03,2.117,0.604,3.039,1.406
		c1.333,1.158,2.457,2.506,3.498,3.925c1.184,1.613,2.486,3.119,3.959,4.477c1.24,1.143,2.514,2.217,4.232,2.579
		c0.307,0.065,0.605,0.202,0.89,0.342c2.502,1.225,2.701,2.212,0.87,4.356c-0.415,0.485-0.844,0.962-1.306,1.402
		c-1.792,1.708-3.247,1.591-4.81-0.387c-0.646-0.818-1.217-1.701-1.492-2.71c-0.959-3.509-3.111-6.256-5.573-8.801
		c-1.442-1.492-2.953-2.917-4.413-4.392c-0.432-0.437-1.082-0.887-0.771-1.597C1351.755,42.154,1352.513,42.266,1353.328,42.247z"/>
	<path fill-rule="evenodd" clip-rule="evenodd" d="M41.691,229.712c-3.339,5.04-9.612,5.234-13.128,4.06
		c-1.741-0.582-2.488-1.84-2.159-3.758c0.397-2.313,1.439-4.406,2.854-6.25c1.101-1.434,2.427-1.506,3.362-0.065
		C34.744,226.968,37.747,228.826,41.691,229.712z"/>
	<path fill-rule="evenodd" clip-rule="evenodd" d="M1510.291,232.577c0.48-0.469,1.122-0.545,1.711-0.736
		c2.742-0.887,5.009-2.376,6.661-4.82c1.476-2.183,3.06-2.121,4.384,0.154c0.88,1.512,1.707,3.088,2.169,4.792
		c0.668,2.462-0.306,4.065-2.782,4.642c-3.875,0.903-7.466,0.342-10.626-2.213C1511.191,233.897,1510.535,233.414,1510.291,232.577z
		"/>
	<path fill-rule="evenodd" clip-rule="evenodd" d="M762.362,277.256c-2.47-0.002-4.941-0.036-7.411,0.014
		c-1.191,0.023-1.728-0.365-1.707-1.641c0.07-4.244-0.341-3.63,3.493-3.657c4.303-0.03,8.606-0.024,12.909,0.005
		c1.707,0.012,1.761,0.059,1.757,1.729c-0.009,4.074,0.434,3.501-3.305,3.548C766.187,277.277,764.274,277.257,762.362,277.256z"/>
	<path fill-rule="evenodd" clip-rule="evenodd" d="M180.251,34.23c-0.075,0.345-0.331,0.547-0.617,0.682
		c-0.866,0.406-1.755,0.762-2.617,1.176c-3.886,1.869-7.729,3.807-10.941,6.771c-0.941,0.868-1.838,1.765-2.593,2.807
		c-0.611,0.844-1.354,1.58-2.229,2.152c-0.836,0.548-1.514,0.349-1.936-0.573c-0.165-0.36-0.369-0.73-0.416-1.113
		c-0.144-1.153-0.667-2.047-1.417-2.947c-1.365-1.638-0.886-2.759,1.187-3.127c0.548-0.097,1.108-0.164,1.664-0.174
		c2.934-0.057,5.64-0.892,8.233-2.233c2.264-1.17,4.448-2.51,6.852-3.396c1.278-0.471,2.582-0.85,3.971-0.674
		C179.791,33.632,180.175,33.737,180.251,34.23z"/>
	<path fill-rule="evenodd" clip-rule="evenodd" d="M1371.336,36.733c1.633-0.971,3.02-0.408,4.373-0.003
		c2.157,0.646,4.117,1.761,6.051,2.873c3.332,1.915,6.881,2.957,10.709,3.093c0.319,0.011,0.645,0.005,0.957,0.064
		c1.485,0.281,2.135,1.469,1.132,2.591c-1.135,1.271-1.498,2.748-2.043,4.23c-0.526,1.435-1.111,1.548-2.321,0.617
		c-0.504-0.388-1.006-0.82-1.379-1.327c-3.699-5.019-9.003-7.783-14.45-10.356C1373.381,38.049,1372.227,37.864,1371.336,36.733z"/>
	<path fill-rule="evenodd" clip-rule="evenodd" d="M133.47,26.628c0.87,0.11,1.674,0.156,2.452,0.321
		c2.618,0.555,5.23,0.495,7.857,0.084c1.023-0.16,2.062-0.252,3.097-0.304c0.538-0.026,1.221-0.033,1.321,0.701
		c0.086,0.636-0.398,1.041-0.938,1.243c-0.669,0.25-1.369,0.442-2.071,0.578c-1.966,0.38-3.878,0.938-5.719,1.714
		c-1.627,0.686-3.101,1.499-4.007,3.209c-0.795,1.501-2.481,1.359-3.021-0.232c-0.6-1.771-1.592-3.039-3.211-3.977
		c-1.208-0.7-1.146-1.36-0.009-2.15C130.519,26.914,132.01,26.687,133.47,26.628z"/>
	<path fill-rule="evenodd" clip-rule="evenodd" d="M1404.954,29.328c1.449,0.17,2.801,0.303,4.144,0.491
		c2.564,0.36,5.103,0.177,7.621-0.352c1.968-0.413,3.826-0.117,5.557,0.852c1.307,0.732,1.396,1.571,0.168,2.297
		c-1.61,0.951-2.595,2.228-3.17,4.01c-0.46,1.424-2.119,1.729-2.752,0.495c-1.548-3.023-4.453-3.665-7.24-4.573
		c-1.06-0.345-2.164-0.553-3.246-0.829c-0.461-0.118-0.936-0.21-1.375-0.385c-0.613-0.245-1.234-0.626-1.021-1.388
		C1403.816,29.311,1404.481,29.31,1404.954,29.328z"/>
	<path fill-rule="evenodd" clip-rule="evenodd" d="M32.675,200.855c0.022,1.104-0.299,1.837-0.74,2.504
		c-0.674,1.017-1.493,2.04-2.816,1.92c-1.324-0.12-1.992-1.194-2.36-2.407c-0.6-1.977-1.321-3.929-1.746-5.942
		c-0.515-2.439-0.25-4.792,1.864-6.526c1.11-0.91,1.976-0.743,2.344,0.606c0.842,3.08,1.891,6.07,3.266,8.951
		C32.652,200.307,32.651,200.731,32.675,200.855z"/>
	<path fill-rule="evenodd" clip-rule="evenodd" d="M1526.971,197.698c-0.346,2.934-1.172,5.77-2.298,8.473
		c-0.903,2.169-2.737,2.264-4.32,0.456c-1.2-1.37-1.652-2.898-0.798-4.621c1.242-2.506,2.106-5.144,2.865-7.83
		c0.564-2.005,1.524-2.178,2.947-0.614C1526.425,194.725,1527.041,196.072,1526.971,197.698z"/>
	<path fill-rule="evenodd" clip-rule="evenodd" d="M200.109,174.442c0.004,0.521-0.329,0.892-0.631,1.247
		c-1.513,1.778-2.218,3.812-2.156,6.155c0.048,1.802-0.862,3.206-2.194,4.323c-1.039,0.872-1.913,0.929-2.709-0.03
		c-1.19-1.435-2.632-1.948-4.421-1.837c-0.69,0.044-1.546,0.153-1.771-0.782c-0.219-0.915,0.349-1.499,1.104-1.906
		c0.783-0.423,1.622-0.631,2.514-0.676c1.202-0.061,2.055-0.652,2.715-1.678c0.903-1.402,1.756-2.854,2.921-4.069
		c1.042-1.087,2.256-1.767,3.832-1.463C199.707,173.802,200.103,173.914,200.109,174.442z"/>
	<path fill-rule="evenodd" clip-rule="evenodd" d="M73.758,70.364c-0.781,0.36-1.073,1.151-1.527,1.785
		c-3.486,4.864-6.982,9.721-10.408,14.626c-1.392,1.993-3.188,2.806-5.554,2.407c-0.39-0.065-0.777-0.19-1.144-0.342
		c-1.531-0.631-1.733-1.413-0.405-2.351c6.233-4.405,11.258-10.133,16.852-15.236c0.583-0.532,1.062-1.564,2.176-0.873
		c-0.116-0.081-0.233-0.161-0.349-0.241C73.518,70.215,73.638,70.29,73.758,70.364z"/>
	<path fill-rule="evenodd" clip-rule="evenodd" d="M1353.262,176.256c1.094,0.226,1.933,0.615,2.659,1.303
		c1.058,1,1.895,2.17,2.592,3.418c0.926,1.656,2.174,2.678,4.13,2.757c0.808,0.032,1.561,0.321,2.194,0.851
		c0.513,0.429,0.922,0.942,0.679,1.649c-0.222,0.646-0.85,0.612-1.396,0.654c-0.317,0.024-0.638,0.014-0.956,0.017
		c-1.42,0.016-2.601,0.48-3.599,1.566c-1.211,1.316-1.879,1.289-3.177,0.06c-1.067-1.012-1.919-2.189-1.888-3.731
		c0.051-2.499-0.621-4.711-2.274-6.616c-0.348-0.4-0.831-0.889-0.36-1.461C1352.237,176.268,1352.824,176.205,1353.262,176.256z"/>
	<path fill-rule="evenodd" clip-rule="evenodd" d="M1478.557,72.678c1.103,0.568,1.871,1.476,2.716,2.28
		c3.47,3.303,6.93,6.615,10.385,9.933c1.62,1.555,3.485,2.793,5.251,4.161c1.403,1.087,1.252,1.857-0.398,2.477
		c-2.185,0.82-4.722,0.287-6.056-1.547c-4.036-5.552-7.981-11.169-11.951-16.77C1478.439,73.121,1478.528,72.921,1478.557,72.678z"
		/>
	<path fill-rule="evenodd" clip-rule="evenodd" d="M23.238,201.712c0.613,1.24,0.819,2.366,1.506,3.26
		c0.962,1.252,2.216,2.037,3.747,2.391c0.553,0.128,1.189,0.222,0.994,1.016c-0.642,2.615,0.367,5.035,0.834,7.521
		c0.127,0.68,0.572,1.333,0.204,2.061C24.469,217.143,20.189,207.94,23.238,201.712z"/>
	<path fill-rule="evenodd" clip-rule="evenodd" d="M1521.313,220.659c-0.342-0.539-0.114-1.075,0.008-1.611
		c0.302-1.319,0.564-2.649,0.916-3.955c0.404-1.504-0.239-3.168,0.168-4.43c0.355-1.102,2.504-0.976,3.633-1.926
		c1.282-1.079,1.772-2.593,2.384-4.137C1531.969,209.688,1527.162,219.605,1521.313,220.659z"/>
	<path fill-rule="evenodd" clip-rule="evenodd" d="M120.229,54.582c-2.043,1.602-4.07,3.225-6.138,4.795
		c-0.837,0.635-1.863,0.874-2.888,1.058c-0.86,0.154-1.724,0.291-2.579,0.472c-2.63,0.558-4.051-0.193-5.198-2.67
		c-0.335-0.722,0.02-1.026,0.53-1.329c1.316-0.782,2.749-1.329,4.246-1.506c3.94-0.465,7.895-0.809,11.843-1.2
		C120.105,54.328,120.167,54.455,120.229,54.582z"/>
	<path fill-rule="evenodd" clip-rule="evenodd" d="M1431.342,57.036c3.814,0.303,7.463,0.531,11.099,0.876
		c1.843,0.175,3.569,0.735,5.212,1.585c0.797,0.412,1.059,0.902,0.451,1.667c-0.494,0.623-0.979,1.253-1.468,1.88
		c-0.603,0.773-1.347,0.994-2.317,0.756c-1.465-0.358-2.951-0.633-4.435-0.912c-0.798-0.15-1.55-0.417-2.185-0.901
		C1435.564,60.357,1433.459,58.689,1431.342,57.036z"/>
	<path fill-rule="evenodd" clip-rule="evenodd" d="M92.263,66.817c1.688-2.756,2.811-5.115,5.312-6.416
		c1.063-0.553,1.742-0.544,2.309,0.568c0.25,0.492,0.598,0.935,0.909,1.396c1.279,1.895,1.237,2.135-0.868,2.681
		C97.561,65.659,95.167,66.152,92.263,66.817z"/>
	<path fill-rule="evenodd" clip-rule="evenodd" d="M1459.313,69.404c-3.119-0.742-5.664-1.32-8.192-1.963
		c-0.963-0.245-1.34-0.818-0.615-1.738c0.344-0.437,0.651-0.903,0.962-1.365c1.434-2.136,1.439-2.149,3.619-0.684
		C1457.011,64.948,1457.978,66.955,1459.313,69.404z"/>
	<path fill-rule="evenodd" clip-rule="evenodd" d="M1527.436,219.857c0.639,2.41,0.377,4.698,0.215,6.966
		c-0.041,0.588-0.597,0.731-1.083,0.371c-1.226-0.906-2.304-1.971-3.169-3.232c-0.421-0.615-0.368-1.225,0.229-1.697
		C1524.744,221.382,1525.843,220.464,1527.436,219.857z"/>
	<path fill-rule="evenodd" clip-rule="evenodd" d="M23.941,221.012c0-0.079-0.012-0.16,0.001-0.237
		c0.192-1.11-0.502-2.42,0.628-3.301c0.383-0.298,3.425,1.712,3.901,2.463c0.287,0.453,0.288,0.893-0.008,1.325
		c-0.858,1.25-1.939,2.302-3.13,3.215c-0.641,0.491-1.241,0.272-1.293-0.622c-0.056-0.944-0.013-1.895-0.013-2.843
		C23.999,221.012,23.97,221.012,23.941,221.012z"/>
	<path fill-rule="evenodd" clip-rule="evenodd" d="M147.368,59.843c-0.424,0.436-1.002,0.462-1.537,0.5
		c-1.966,0.142-3.884,0.77-5.898,0.621C141.325,57.231,144.515,56.768,147.368,59.843z"/>
	<path fill-rule="evenodd" clip-rule="evenodd" d="M1412.319,63.824c-2.914-0.407-5.333-0.745-7.938-1.108
		c0.825-1.61,2.184-2.132,3.675-2.194C1410.085,60.438,1411.063,61.922,1412.319,63.824z"/>
	<path fill-rule="evenodd" clip-rule="evenodd" d="M73.747,70.381c-0.043-0.09-0.086-0.179-0.129-0.269
		c0.046,0.083,0.093,0.166,0.14,0.25C73.758,70.364,73.747,70.381,73.747,70.381z"/>
	<path fill-rule="evenodd" clip-rule="evenodd" fill="#FFFFFF" d="M1113.867,156.34c-0.5-0.879-0.321-1.696-0.321-2.479
		c-0.01-29.182-0.008-58.365-0.008-87.547c0-0.4,0.026-0.801,0.001-1.199c-0.055-0.896,0.307-1.274,1.244-1.287
		c7.067-0.097,14.166,0.176,20.833,2.576c9.777,3.52,17.073,9.764,20.228,20.182c2.614,8.631,3.306,17.387,2.619,26.312
		c-0.406,5.275-1.287,10.454-2.967,15.492c-3.422,10.266-10.002,17.72-19.833,22.215
		C1128.727,153.775,1121.428,155.656,1113.867,156.34z"/>
	<path fill-rule="evenodd" clip-rule="evenodd" fill="#FFFFFF" d="M894.889,130.181c0,13.915,0.007,27.83-0.006,41.744
		c-0.003,2.717-0.073,5.427-0.592,8.118c-1.689,8.764-6.988,14.159-15.775,15.885c-4.519,0.888-9.058,0.945-13.575-0.025
		c-8.941-1.922-15.047-8.534-16.27-17.623c-0.256-1.899-0.415-3.809-0.414-5.735c0.017-28.229,0.017-56.459,0.002-84.688
		c-0.001-2.249,0.142-4.486,0.546-6.685c1.713-9.311,7.387-14.977,16.807-16.663c4.769-0.854,9.569-0.713,14.279,0.485
		c7.921,2.015,12.592,7.17,14.326,15.093c0.604,2.755,0.668,5.55,0.669,8.35C894.892,102.352,894.889,116.266,894.889,130.181z"/>
	<path fill-rule="evenodd" clip-rule="evenodd" fill="#FFFFFF" d="M837.805,267.841c0.163-4.792,0.371-9.341,1.24-13.828
		c0.428-2.205,1.046-4.351,2.256-6.275c2.961-4.707,7.953-4.573,10.594,0.291c1.314,2.42,2.003,5.065,2.356,7.758
		c1.121,8.537,0.933,17.051-0.794,25.508c-0.273,1.334-0.703,2.62-1.311,3.844c-0.54,1.087-1.241,2.041-2.195,2.809
		c-2.99,2.404-6.352,1.943-8.437-1.274c-1.728-2.664-2.384-5.729-2.941-8.803C837.959,274.476,837.924,271.035,837.805,267.841z"/>
</g>
</svg>
